<svg xmlns="http://www.w3.org/2000/svg" viewBox="0 0 512 512"><defs><style>.cls-1{fill:#333;}.cls-2{fill:#fe4a00;}.cls-3{fill:#fec33e;}.cls-4{fill:#499cf2;}.cls-5{fill:#13cfaa;}.cls-6{fill:#46c9ee;}</style></defs><g id="Layer_2" data-name="Layer 2"><g id="Layer_1-2" data-name="Layer 1"><path d="M511.65,466.09l-.43,9.39c-.86,5.75-2.34,11.21-5.41,16-7.93,12.44-17.39,20.43-30.54,20.42q-219.58-.18-439.18.08c-14.66,0-29.25-14.65-34.31-30.49-1-3.29-.89-6.9-1.44-10.33A30.78,30.78,0,0,1,0,466.37V51a21.81,21.81,0,0,1,.29-3.13,8.23,8.23,0,0,0,.06-1.92l.43-9.38c.86-5.75,2.34-11.21,5.41-16C14.12,8.07,23.57.07,36.73.08Q256.3.26,475.86,0c14.67,0,29.3,14.57,34.31,30.45,1.29,4.07,1.36,8.54,1.51,12.92.12,1.43-.14,2.89,0,4.32a43.47,43.47,0,0,1,.31,4.56V461a22.09,22.09,0,0,1-.29,3.15A8.13,8.13,0,0,0,511.65,466.09Z"/><path class="cls-1" d="M384,255.85V31.27C384,26,384,26,388.16,26q41.59,0,83.2,0c13.33,0,21.32,10.24,21.32,27.38q0,202.56,0,405.13c0,17.21-8,27.47-21.25,27.48-27.83,0-55.67-.08-83.51.11-3.34,0-4-1.25-4-5.28Q384.08,368.33,384,255.85Z"/><path class="cls-1" d="M260.92,255.92V31.78c0-5.77,0-5.77,4.49-5.77,35,0,70,0,104.94-.1,3.21,0,4.08,1,4.08,5.2q-.14,225,0,449.94c0,3.93-.74,5.05-3.87,5-35.08-.15-70.17-.09-105.26-.09-4.36,0-4.37,0-4.37-5.52Z"/><path class="cls-1" d="M251.08,256V480.15c0,5.84,0,5.85-4.42,5.85-35,0-70-.05-104.95.08-3.08,0-4.15-.73-4.15-5.1q.15-225,0-449.95c0-4.36,1.05-5.12,4.14-5.11,35.09.14,70.18.09,105.27.09,4.1,0,4.11,0,4.11,5.43Z"/><path class="cls-1" d="M128,256q0,112.08,0,224.16c0,6.44.6,5.81-4.36,5.82Q82,486,40.44,486c-13.09,0-21.11-10.32-21.12-27.23q0-202.77,0-405.54c0-16.9,8-27.2,21.13-27.21q41.6,0,83.2,0C128,26,128,26,128,31.44Z"/><path class="cls-2" d="M441.84,109.27c-10.24,0-20.48-.07-30.71.06-2.06,0-2.74-.65-2.72-3.41q.13-24.26,0-48.52c0-2.67.54-3.46,2.67-3.45q30.85.15,61.73,0c2.05,0,2.72.62,2.7,3.38q-.15,24.25,0,48.52c0,3.12-.92,3.49-3,3.46C462.31,109.21,452.07,109.27,441.84,109.27Z"/><path class="cls-3" d="M318.06,109.27c-10,0-20-.11-30.05.08-2.6,0-3.19-1.07-3.17-4.22q.17-23.62,0-47.26c0-3.06.64-3.94,3-3.92q30.54.18,61.07,0c2.45,0,3,1,3,4q-.16,23.82,0,47.66c0,2.85-.63,3.77-2.88,3.75C338.74,109.19,328.4,109.27,318.06,109.27Z"/><path class="cls-4" d="M318.34,137.1c10.23,0,20.46.07,30.69,0,2.18,0,2.94.7,2.92,3.64q-.15,24,0,48.09c0,3-.82,3.63-3,3.62q-30.69-.12-61.39,0c-2.07,0-2.76-.75-2.75-3.47q.12-24.25,0-48.5c0-2.82.8-3.41,2.8-3.39C297.87,137.16,308.1,137.1,318.34,137.1Z"/><path class="cls-5" d="M194.54,109.27c-10.12,0-20.24-.08-30.36.06-2.19,0-2.91-.7-2.89-3.63q.15-24.24,0-48.47c0-2.5.51-3.28,2.49-3.27q31,.13,62,0c1.88,0,2.6.57,2.58,3.17q-.12,24.45,0,48.89c0,3-1,3.29-2.86,3.28C215.21,109.23,204.87,109.27,194.54,109.27Z"/><path class="cls-6" d="M194.65,192.35c-10,0-20-.07-30,.06-2.34,0-3.37-.54-3.34-4,.15-15.88.12-31.77,0-47.66,0-2.86.65-3.72,2.88-3.7q30.69.13,61.37,0c2.28,0,2.87,1,2.85,3.77q-.12,23.82,0,47.65c0,3.06-.66,4-3.06,4C215.11,192.26,204.88,192.35,194.65,192.35Z"/><path class="cls-5" d="M194.55,220.19c10.33,0,20.67.09,31-.06,2.26,0,2.86.85,2.84,3.7q-.15,24,0,48.06c0,3-.77,3.62-2.92,3.61q-30.69-.13-61.37,0c-2.29,0-2.83-.92-2.81-3.73q.15-24,0-48.06c0-3,.74-3.61,2.9-3.59C174.31,220.27,184.43,220.19,194.55,220.19Z"/><path class="cls-6" d="M71.36,109.26c-10.23,0-20.46-.06-30.68.06-2.17,0-3-.71-2.94-3.65q.16-24,0-48.07c0-2.94.74-3.65,2.92-3.64q30.53.13,61,0c2.3,0,3.17.63,3.14,3.83q-.18,23.82,0,47.65c0,3.14-.79,3.92-3.12,3.89C91.6,109.18,81.48,109.26,71.36,109.26Z"/><path class="cls-4" d="M71,192.35c-10.12,0-20.25-.07-30.37.06-2.2,0-2.92-.75-2.9-3.67q.15-24,0-48.08c0-3,.75-3.62,2.92-3.61q30.69.13,61.38,0c2,0,2.79.68,2.77,3.43q-.12,24.24,0,48.49c0,2.76-.76,3.45-2.79,3.43C91.69,192.3,81.36,192.35,71,192.35Z"/><path class="cls-4" d="M71.2,220.19c10.23,0,20.46.07,30.69-.05,2.17,0,3,.69,2.94,3.64q-.15,24,0,48.07c0,3-.81,3.65-3,3.64q-30.69-.12-61.38,0c-2.07,0-2.75-.74-2.74-3.46q.14-24.24,0-48.49c0-2.78.74-3.42,2.76-3.4C50.74,220.25,61,220.19,71.2,220.19Z"/></g></g></svg>